# WaveFront *.obj file (generated by CINEMA 4D)

v 9.34850788116455 21.90057182312012 -7.98778676986694
v 14.42953205108643 20.14494895935059 -7.29332160949707
v 7.14274263381958 19.99197387695312 -14.61837768554688
v 15.18878841400146 17.58772087097168 -13.82961463928223
v 0.74878227710724 17.02386283874512 -12.02310371398926
v 0.25541704893112 6.88086128234863 -10.86365509033203
v -7.98789739608765 13.9311580657959 -15.8801908493042
v -14.09427165985107 7.22177696228027 -13.17563056945801
v -8.48023319244385 15.5893611907959 -7.5896167755127
v -14.85352802276611 9.77900505065918 -6.63932991027832
v -16.01759910583496 13.69967460632324 3.38192558288574
v -14.96173000335693 28.64805030822754 -3.15043830871582
v -2.43535900115967 29.2557315826416 -0.42770573496819
v 2.67401432991028 34.18291091918945 8.15834617614746
v 8.59368228912354 24.44287300109863 -1.48963356018066
v -2.66115283966064 22.12460899353027 11.61198997497559
v -0.20205289125443 20.68220329284668 -8.62052345275879
v 19.13198089599609 -20.28860092163086 4.71024131774902
v 14.16147899627686 -36.27853393554688 14.41059684753418
v 15.35072040557861 -26.21152496337891 5.09305381774902
v 18.14658546447754 -16.4794921875 8.04983329772949
v -0.87880796194077 7.50024604797363 22.91603660583496
v 11.2366247177124 11.46515464782715 17.46767234802246
v -10.46052837371826 -7.89192533493042 10.8782377243042
v -3.65189671516418 2.23875999450684 13.10474967956543
v 3.85693645477295 -8.45004844665527 -17.85302925109863
v -24.8671703338623 -27.8676700592041 -13.27102851867676
v 42.42494201660156 13.68205451965332 0.40418055653572
v 15.24533557891846 9.85700798034668 -10.11126136779785
v 20.66166305541992 -4.79947471618652 3.18018913269043
v 21.45575904846191 -7.47402429580688 -3.65596985816956
v 13.2703971862793 -23.0081901550293 -1.83314347267151
v 4.38202142715454 -28.19802093505859 4.20963859558105
v -7.14931058883667 -26.74669075012207 0.5614070892334
v -7.94340562820435 -24.0721435546875 7.3975658416748
v 0.31784170866013 -22.79071044921875 8.4480037689209
v -0.43698483705521 -20.2484016418457 14.9461727142334
v -5.01966428756714 -9.31160926818848 10.51889801025391
v 5.80692434310913 -14.67313385009766 17.5442943572998
v 8.29969882965088 -17.15569686889648 14.75104331970215
v 17.39175796508789 -13.93719100952148 14.54798698425293
v 21.3835620880127 -9.15914535522461 17.19640159606934
# 42 vertices

vn 0.34800335764885 0.88607108592987 -0.30622172355652
vn -0.12990927696228 0.30756965279579 -0.94261574745178
vn -0.06028148531914 0.27981358766556 -0.95815998315811
vn -0.13553455471992 0.19341094791889 -0.97171115875244
vn -0.66095542907715 0.66961193084717 -0.33875918388367
vn -0.79201060533524 -0.19662763178349 -0.57797646522522
vn 0.25753480195999 0.72991633415222 -0.63316506147385
vn 0.2723813354969 0.7556112408638 -0.59570127725601
vn -0.76281070709229 0.5625216960907 0.3188873231411
vn -0.8565861582756 0.45085620880127 0.25097566843033
vn -0.33563378453255 0.59329676628113 -0.73167544603348
vn -0.36870127916336 0.58327186107636 -0.723777115345
vn -0.43110251426697 0.55704253911972 -0.7098268866539
vn -0.31651049852371 0.870341360569 -0.37726253271103
vn 0.18922391533852 -0.55164003372192 -0.81233465671539
vn 0.14641013741493 0.61607879400253 0.77395796775818
vn -0.14056484401226 0.32956799864769 0.93360936641693
vn -0.76375889778137 0.22240883111954 0.6059758067131
vn -0.76733386516571 0.09725271165371 0.6338301897049
vn -0.77888530492783 0.29378512501717 0.55410104990005
vn -0.73836022615433 -0.65273332595825 0.16959753632545
vn -0.00803140643984 0.1735033839941 -0.98480051755905
vn -0.18553520739079 0.07975170016289 -0.97939592599869
vn 0.31325897574425 0.27391409873962 -0.90930736064911
vn 0.99409455060959 0.05284379422665 0.09478133171797
vn 0.97245144844055 -0.06715721637011 0.2232219427824
vn 0.97504270076752 -0.10428246855736 0.19600230455399
vn 0.97577238082886 -0.1400032043457 0.16812886297703
vn 0.96101087331772 0.00621882081032 0.27644065022469
vn 0.10753370821476 -0.97045964002609 0.21597367525101
vn 0.21740697324276 -0.96497201919556 -0.14684425294399
vn 0.22984696924686 -0.97013854980469 -0.07746983319521
vn 0.17615889012814 -0.95948308706284 0.2199095338583
vn 0.20750318467617 -0.90257638692856 0.37722453474998
vn 0.13200105726719 -0.917819917202 0.37440928816795
vn 0.09584666788578 -0.92315310239792 0.37229257822037
vn -0.6879568696022 -0.18644273281097 0.70139467716217
vn -0.71561121940613 -0.07534559071064 0.69442319869995
vn -0.63583534955978 -0.21510148048401 0.74124538898468
vn 0.2340379357338 -0.61354875564575 0.7541778087616
vn 0.63276559114456 -0.69336080551147 0.3447585105896
vn 0.37794664502144 -0.20116110146046 -0.90370935201645
vn 0.509641289711 -0.13391053676605 -0.84990215301514
vn 0.07181454449892 -0.72867697477341 -0.68108189105988
vn -0.03025069087744 -0.6999534368515 -0.71354752779007
vn 0.17303310334682 -0.74844551086426 -0.64022564888
vn 0.43216308951378 -0.08712638169527 0.8975767493248
vn 0.02296911180019 -0.00181252858602 0.99973452091217
vn -0.83286619186401 -0.35416579246521 0.42532396316528
vn -0.23975132405758 0.1188131570816 0.96353656053543
vn -0.28528964519501 0.02350069023669 0.95815318822861
vn 0.62872719764709 -0.06334460526705 -0.77504163980484
vn 0.58692294359207 -0.49345156550407 -0.64189326763153
vn 0.56772989034653 -0.47697806358337 -0.67095059156418
vn -0.32763251662254 -0.07206415385008 0.94205290079117
vn 0.6052759885788 -0.50920939445496 -0.61183881759644
vn 0.36400929093361 -0.91530466079712 -0.17237940430641
vn 0.13184784352779 -0.42888829112053 -0.89368391036987
vn 0.25091272592545 0.24041245877743 -0.93768048286438
vn -0.56289035081863 0.08972119539976 0.82164746522903
vn -0.96892380714416 0.06615745276213 0.23834808170795
vn -0.31507232785225 -0.63514482975006 -0.70520955324173
vn 0.01637540571392 -0.9304918050766 0.3659465610981
vn -0.09315860271454 0.92349201440811 -0.37213438749313
vn -0.23863138258457 0.6273917555809 -0.74123859405518
vn -0.21297258138657 0.4038197696209 0.88970345258713
vn -0.64932090044022 0.65963351726532 0.37850487232208
vn 0.24213168025017 0.70255064964294 -0.66917473077774
vn 0.31651049852371 -0.870341360569 0.37726253271103
vn -0.52984857559204 -0.17715787887573 0.82938265800476
vn -0.66638922691345 -0.39028957486153 0.63529479503632
vn -0.85782080888748 -0.50456738471985 0.09775095432997
vn 0.8940794467926 0.43869581818581 0.09037671238184
vn 0.45807182788849 -0.42188358306885 0.78242218494415
vn 0.80472779273987 -0.55384999513626 -0.21368989348412
vn 0.97555893659592 -0.14103524386883 0.16850477457047
vn 0.86233031749725 0.43275892734528 0.26288044452667
vn 0.12100175768137 0.93179476261139 0.34222370386124
vn -0.89458817243576 0.36644804477692 0.25578859448433
vn -0.98805832862854 0.06440801918507 -0.13997258245945
vn 0.02581312693655 -0.00987523980439 0.99961799383163
vn 0.97535008192062 -0.14203216135502 0.16887608170509
vn 0.17687706649303 0.39431712031364 -0.90179181098938
vn -0.43307542800903 0.56120425462723 -0.70533359050751
vn -0.36588579416275 0.53320324420929 -0.76277250051498
vn 0.93110293149948 -0.07253196835518 0.35747227072716
# 86 normals

o objMesh
usemtl default
f 1//1 2//1 3//1
f 4//1 3//1 2//1
f 5//2 6//3 7//2
f 8//4 7//2 6//3
f 9//5 10//5 11//5
f 11//6 12//6 9//6
f 13//7 14//8 15//7
f 14//10 13//9 16//9
f 9//13 17//12 5//11
f 5//14 7//14 9//14
f 18//15 19//15 20//15
f 2//1 1//1 15//1
f 16//16 22//16 23//16
f 23//17 14//17 16//17
f 10//20 24//19 25//18
f 25//21 11//21 10//21
f 6//3 26//22 8//4
f 27//23 8//4 26//22
f 2//24 28//24 29//24
f 29//25 4//25 2//25
f 30//28 21//27 31//26
f 18//29 31//26 21//27
f 32//32 20//31 33//30
f 33//30 34//33 32//32
f 35//36 36//35 37//34
f 37//39 38//38 35//37
f 39//40 40//40 41//40
f 41//40 42//40 39//40
f 28//41 30//41 31//41
f 31//43 29//43 28//42
f 26//44 32//45 34//44
f 34//44 27//46 26//44
f 24//19 35//37 38//38
f 38//38 25//18 24//19
f 22//47 39//47 23//47
f 42//48 23//48 39//48
f 22//49 25//49 39//49
f 38//51 39//51 25//50
f 29//43 31//43 26//52
f 32//53 26//54 31//53
f 38//51 37//55 39//51
f 40//40 39//40 37//40
f 31//53 18//56 32//53
f 20//31 32//32 18//57
f 4//58 29//58 6//58
f 26//22 6//3 29//59
f 11//60 25//60 16//60
f 22//61 16//61 25//61
f 19//62 36//62 20//62
f 33//30 20//63 36//35
f 17//64 1//64 3//64
f 3//65 5//11 17//12
f 12//66 11//66 13//66
f 16//9 13//9 11//67
f 3//2 4//2 6//3
f 6//3 5//2 3//2
f 13//7 15//7 17//68
f 1//64 17//64 15//64
f 40//69 37//34 36//35
f 36//70 19//70 40//70
f 27//71 34//71 24//71
f 35//72 24//72 34//72
f 23//73 42//73 30//73
f 30//74 28//74 23//74
f 34//33 33//30 35//36
f 36//35 35//36 33//30
f 42//75 41//75 30//75
f 21//27 30//28 41//76
f 14//77 23//77 2//77
f 28//78 2//78 23//78
f 8//79 27//79 24//79
f 24//80 10//80 8//80
f 41//81 40//81 19//81
f 19//82 21//27 41//76
f 12//83 13//83 9//83
f 17//12 9//13 13//84
f 7//5 8//5 10//5
f 10//5 9//5 7//5
f 15//85 14//85 2//85
f 19//86 18//86 21//86

